<svg width="100" height="100" viewBox="0 0 100 100" fill="none" xmlns="http://www.w3.org/2000/svg">
<path d="M97.9167 39.5833H90.2083C90 39.375 90 39.375 89.7917 39.1667C91.6667 37.7083 92.9167 35.4167 92.9167 32.9167C92.9167 28.5417 89.375 25 85 25H72.5H70.4167V27.0833V45.8333V47.0833L69.7917 45.2083L63.5417 26.4583L62.9167 25H61.4583H52.7083H51.25L50.8333 26.4583L49.1667 31.6667V31.25V27.0833V25H47.0833H18.9583C15 25 12.0833 28.125 12.0833 32.0833C12.0833 33.9583 12.7083 34.7917 13.125 35.4167C13.5417 35.8333 15.2083 37.9167 16.25 39.375H2.08333H0V41.4583V45.625V47.7083H2.08333H20.4167C24.375 47.7083 27.5 44.5833 27.5 40.625C27.5 38.75 26.875 37.9167 26.4583 37.2917L23.3333 33.125H30.625V45.625V47.7083H32.7083H38.125H40.2083V45.625V33.125H47.0833H48.5417L44.7917 45L43.75 47.9167H46.6667H51.875H53.3333L53.75 46.4583L54.7917 43.75H59.7917L60.8333 46.4583L61.25 47.9167H62.5H67.7083H70.2083H72.2917H77.9167H80V45.8333V43.5417C81.25 44.7917 82.5 45.8333 83.3333 46.6667C83.75 46.875 84.5833 47.9167 86.25 47.9167H97.9167H100V45.8333V41.6667V39.5833H97.9167ZM32.2917 54.7917L26.0417 73.5417L25.625 75H24.1667H20.625H19.1667L18.75 73.5417L16.6667 67.9167L14.7917 73.5417L14.1667 75H12.7083H9.16667H7.5L7.08333 73.5417L0.833333 54.7917L0 52.0833H2.91667H8.33333H9.79167L10.2083 53.5417L10.8333 55.8333L11.6667 53.5417L12.2917 52.0833H13.75H19.5833H21.0417L21.4583 53.5417L22.2917 55.8333L22.9167 53.5417L23.3333 52.0833H25H30.4167H33.3333L32.2917 54.7917ZM86.0417 52.0833C82.0833 52.0833 78.9583 55.2083 78.9583 59.1667C78.9583 61.0417 79.5833 61.875 80 62.5C80.4167 62.9167 82.0833 65 83.3333 66.4583H73.9583C73.9583 66.4583 73.9583 66.4583 73.75 66.4583L73.5417 66.25C75.4167 64.7917 76.6667 62.5 76.6667 60C76.6667 55.625 73.125 52.0833 68.75 52.0833H61.6667H56.25H54.1667V54.1667V72.9167V75L53.3333 72.2917L47.0833 53.5417L46.6667 52.0833H45.2083H36.4583H35L34.5833 53.5417L28.5417 72.2917L27.5 75H30.4167H35.4167H36.875L37.2917 73.5417L38.3333 70.8333H43.3333L44.375 73.5417L44.7917 75H46.25H51.4583H54.1667H56.25H61.875H63.9583V72.9167V70.625C65.2083 71.875 66.4583 72.9167 67.5 73.75C68.3333 74.5833 69.375 75 70.625 75H87.9167C91.875 75 95 71.875 95 67.9167C95 66.0417 94.375 65.2083 93.9583 64.5833L90.8333 60.4167H97.9167H100V58.3333V54.1667V52.0833H97.9167H86.0417Z" fill="#8C2B2B"/>
<path d="M46.8749 27.0834C46.8749 27.0834 20.6249 27.0834 18.7499 27.0834C16.0416 27.0834 13.9583 29.1667 13.9583 32.0834C13.9583 33.3334 14.3749 33.75 14.5833 34.1667C15.2083 35 18.9583 39.5834 18.9583 39.5834C18.9583 39.7917 19.1666 40 19.1666 40.2084C19.3749 41.0417 18.7499 41.6667 17.9166 41.6667H2.08325V45.8334C2.08325 45.8334 18.9583 45.8334 20.4166 45.8334C23.1249 45.8334 25.4166 43.75 25.4166 40.8334C25.4166 39.5834 24.9999 39.1667 24.7916 38.75L20.8333 33.3334C20.8333 33.125 20.6249 32.9167 20.6249 32.7084C20.6249 31.875 21.2499 31.25 22.0833 31.25H32.9166V45.8334H38.3333V31.25H47.2916V27.0834H46.8749ZM61.4583 27.0834H52.7083L46.6666 45.8334H51.8749L53.3333 41.6667H61.2499L62.7083 45.8334H67.9166L61.4583 27.0834ZM54.5833 37.5L57.0833 30L59.5833 37.5H54.5833ZM90.2083 41.6667C89.3749 41.6667 88.9583 41.25 88.5416 40.8334C87.4999 39.5834 86.2499 38.5417 86.2499 38.5417C88.7499 37.9167 90.6249 35.625 90.6249 32.9167C90.6249 29.5834 87.9166 27.0834 84.7916 27.0834H72.2916V45.8334H77.9166V38.75C77.9166 38.75 82.7083 43.3334 84.7916 45.2084C84.9999 45.4167 85.6249 45.8334 86.4583 45.8334C87.0833 45.8334 97.9166 45.8334 97.9166 45.8334V41.6667H90.2083ZM77.9166 31.25H83.3333C84.5833 31.25 85.6249 32.0834 85.6249 33.3334C85.6249 34.5834 84.5833 35.4167 83.3333 35.4167H77.9166V31.25ZM24.9999 54.1667L22.2916 62.2917L19.5833 54.1667H13.7499L10.8333 62.2917L8.12492 54.1667H2.91659L9.16659 72.9167H12.7083L16.6666 61.4584L20.6249 72.9167H24.1666L30.4166 54.1667H24.9999ZM88.9583 58.3334H97.9166V54.1667C97.9166 54.1667 87.9166 54.1667 86.0416 54.1667C83.3333 54.1667 81.0416 56.25 81.0416 59.1667C81.0416 60.4167 81.4583 60.8334 81.6666 61.25C82.2916 61.875 86.2499 66.4584 86.2499 66.4584C86.2499 66.6667 86.4583 66.875 86.4583 67.0834C86.4583 67.9167 85.8333 68.5417 85.2083 68.5417C85.2083 68.5417 74.3749 68.5417 74.1666 68.5417C73.3333 68.5417 72.9166 68.125 72.4999 67.7084C71.4583 66.4584 70.4166 65.4167 70.4166 65.4167C72.9166 64.7917 74.7916 62.5 74.7916 59.7917C74.7916 56.4584 72.0833 53.9584 68.9583 53.9584H61.8749H56.2499V72.7084H61.8749V65.625C61.8749 65.625 66.6666 70.2084 68.7499 72.0834C68.9583 72.2917 69.5833 72.7084 70.4166 72.7084C71.0416 72.7084 86.6666 72.7084 87.7083 72.7084C90.4166 72.7084 92.7083 70.8334 92.7083 67.7084C92.7083 66.4584 92.2916 66.0417 92.0833 65.625L87.9166 60.4167C87.9166 60.2084 87.7083 60 87.7083 59.7917C87.7083 58.9584 88.3333 58.3334 88.9583 58.3334ZM67.2916 62.5H61.8749V58.3334H67.2916C68.5416 58.3334 69.5833 59.1667 69.5833 60.4167C69.5833 61.6667 68.5416 62.5 67.2916 62.5ZM45.2083 54.1667H36.4583L30.4166 72.9167H35.4166L36.8749 68.75H44.7916L46.2499 72.9167H51.4583L45.2083 54.1667ZM38.3333 64.5834L40.8333 57.0834L43.3333 64.5834H38.3333Z" fill="black"/>
</svg>
